<svg xmlns="http://www.w3.org/2000/svg" xmlns:xlink="http://www.w3.org/1999/xlink" width="500" zoomAndPan="magnify" viewBox="0 0 375 374.999991" height="500" preserveAspectRatio="xMidYMid meet" version="1.0"><defs><g/></defs><g fill="#3d3b3a" fill-opacity="1"><g transform="translate(47.133736, 255.557658)"><g><path d="M 107.4375 -112.921875 C 106.25 -113.390625 104.34375 -113.625 98.859375 -114.109375 C 93.859375 -114.578125 56.9375 -116.015625 52.40625 -116.015625 L 45.734375 -116.25 L 41.21875 -116.25 C 41.921875 -117.203125 44.078125 -119.578125 45.5 -120.78125 C 46.453125 -121.484375 47.40625 -122.4375 48.359375 -123.640625 C 49.3125 -124.828125 52.640625 -127.921875 54.3125 -129.359375 L 56.703125 -131.265625 L 57.65625 -132.453125 C 58.359375 -133.171875 58.359375 -133.40625 57.890625 -134.109375 C 57.65625 -134.59375 57.171875 -134.828125 56.9375 -134.828125 C 56.453125 -134.828125 53.59375 -132.6875 53.359375 -131.96875 L 51.21875 -130.0625 C 48.59375 -127.921875 48.125 -127.6875 47.640625 -126.96875 C 47.171875 -126.5 40.96875 -120.53125 40.015625 -119.828125 L 39.3125 -119.109375 L 37.40625 -116.96875 L 36.453125 -116.015625 L 2.859375 -115.296875 L -2.375 -114.828125 C -6.4375 -114.578125 -17.859375 -113.625 -19.765625 -113.15625 C -21.671875 -112.671875 -22.625 -111.71875 -21.921875 -111.015625 C -21.671875 -110.53125 -16.90625 -111.015625 -13.578125 -111.71875 C -12.859375 -111.96875 -7.140625 -112.671875 -1.421875 -112.921875 L 4.53125 -113.390625 L 10.953125 -113.625 L 18.8125 -114.109375 C 20.96875 -114.34375 29.0625 -114.34375 34.296875 -114.34375 C 34.0625 -113.875 33.59375 -113.625 33.34375 -113.15625 L 32.640625 -112.671875 L 31.921875 -111.71875 L 29.0625 -108.625 C 25.734375 -105.046875 15.25 -93.625 13.109375 -90.515625 C 13.109375 -90.515625 9.296875 -86 9.296875 -86.234375 C 9.296875 -86 8.34375 -85.046875 7.390625 -84.09375 C 6.1875 -82.90625 4.28125 -80.75 -0.71875 -74.796875 L -2.625 -72.65625 L -4.53125 -70.28125 C -5 -69.5625 -5.234375 -69.078125 -5.484375 -69.078125 C -5.953125 -69.078125 -7.140625 -67.65625 -10.953125 -62.65625 C -12.390625 -60.984375 -13.578125 -59.5625 -14.0625 -59.3125 C -14.296875 -58.84375 -16.671875 -55.984375 -19.296875 -52.890625 L -25.25 -45.5 L -35.015625 -32.390625 C -37.40625 -29.0625 -38.828125 -27.15625 -39.3125 -27.390625 L -39.3125 -26.921875 C -39.3125 -26.6875 -39.3125 -26.203125 -39.546875 -25.734375 C -39.78125 -25.015625 -40.015625 -24.78125 -40.265625 -25.015625 C -40.265625 -24.78125 -40.5 -24.53125 -40.5 -24.53125 C -40.5 -24.0625 -40.5 -23.828125 -40.734375 -23.828125 C -40.734375 -24.0625 -41.453125 -22.625 -41.921875 -20.96875 C -42.875 -18.578125 -43.125 -17.625 -42.875 -16.4375 C -42.40625 -15 -42.171875 -14.765625 -41.453125 -14.53125 C -40.5 -14.53125 -40.015625 -14.53125 -39.78125 -15 C -39.3125 -15.71875 -39.3125 -15.71875 -40.265625 -15.953125 C -41.21875 -15.953125 -41.21875 -16.203125 -41.21875 -17.15625 C -40.96875 -18.34375 -39.0625 -22.390625 -37.40625 -25.015625 C -32.875 -31.6875 -20.96875 -46.921875 -13.34375 -55.75 L -9.53125 -60.265625 L -1.671875 -69.328125 L 4.765625 -76.46875 L 6.90625 -79.09375 L 9.765625 -82.1875 C 11.90625 -84.5625 13.8125 -86.953125 17.859375 -91.71875 C 19.296875 -93.375 20.96875 -95.046875 21.671875 -95.765625 C 22.390625 -96.484375 23.578125 -97.90625 24.296875 -98.859375 L 28.34375 -103.15625 C 30.96875 -106 32.640625 -107.4375 34.0625 -109.34375 L 36.203125 -111.484375 C 36.921875 -112.4375 37.640625 -112.921875 38.109375 -113.625 L 39.3125 -114.34375 C 41.21875 -114.578125 42.640625 -114.34375 43.359375 -114.34375 L 44.3125 -114.34375 C 58.125 -114.109375 91.234375 -113.15625 96 -112.4375 C 97.4375 -111.96875 99.8125 -111.96875 101 -111.71875 C 103.390625 -111.71875 103.390625 -111.71875 102.90625 -110.765625 C 102.4375 -110.296875 102.671875 -109.8125 102.90625 -109.578125 C 103.390625 -109.109375 103.625 -108.859375 103.859375 -109.109375 L 106.25 -110.0625 C 108.859375 -111.25 109.109375 -111.96875 107.4375 -112.921875 Z M 107.4375 -112.921875 "/></g></g></g><g fill="#3d3b3a" fill-opacity="1"><g transform="translate(67.381266, 255.557658)"><g><path d="M -2.859375 -64.796875 C 0.46875 -64.796875 5.484375 -68.375 6.671875 -70.28125 L 7.390625 -70.515625 C 9.765625 -70.03125 12.625 -69.796875 15.71875 -69.796875 C 19.0625 -69.796875 26.6875 -70.75 31.6875 -72.890625 L 33.828125 -73.84375 C 34.296875 -74.09375 34.546875 -74.5625 34.296875 -75.03125 C 34.0625 -75.515625 33.34375 -75.515625 33.109375 -75.28125 C 28.59375 -73.375 23.34375 -71.46875 15.25 -71.46875 C 13.34375 -71.46875 11.4375 -71.703125 10 -72.1875 C 9.53125 -72.421875 9.046875 -72.65625 8.09375 -72.890625 L 8.09375 -75.03125 C 8.09375 -75.28125 8.09375 -75.75 7.859375 -75.984375 C 7.625 -76.46875 6.90625 -76.9375 6.1875 -76.9375 L 3.09375 -77.1875 L 2.625 -77.421875 L 0.71875 -76.703125 L -3.328125 -72.65625 C -4.046875 -71.9375 -6.671875 -67.421875 -5.484375 -65.515625 C -4.765625 -64.5625 -4.765625 -64.5625 -2.859375 -64.796875 Z M 4.765625 -74.09375 C 4.28125 -74.328125 4.046875 -74.5625 4.53125 -74.5625 C 4.765625 -74.5625 5 -74.328125 5.234375 -74.328125 C 5.234375 -74.09375 5.234375 -73.84375 4.765625 -74.09375 Z M -2.140625 -66.9375 C -2.375 -66.9375 -3.328125 -68.125 -1.1875 -70.984375 C 0.234375 -72.890625 0.953125 -73.140625 1.671875 -73.140625 L 2.625 -72.421875 L 4.046875 -71.703125 C 4.28125 -71.46875 5.234375 -71.234375 2.140625 -68.609375 C 0 -66.703125 -1.90625 -66.9375 -2.140625 -66.9375 Z M -2.140625 -66.9375 "/></g></g></g><g fill="#3d3b3a" fill-opacity="1"><g transform="translate(100.730142, 255.557658)"><g><path d="M 30.96875 -59.796875 C 37.15625 -60.5 48.125 -63.125 57.65625 -67.171875 C 63.84375 -69.5625 64.796875 -69.796875 72.890625 -73.609375 L 73.609375 -74.09375 C 74.09375 -74.328125 74.5625 -74.328125 74.796875 -74.796875 C 75.03125 -75.28125 74.5625 -75.515625 74.328125 -75.75 L 73.609375 -75.75 C 73.140625 -75.515625 72.65625 -75.515625 72.1875 -75.28125 L 69.796875 -74.09375 L 68.84375 -73.84375 L 60.984375 -70.515625 L 57.890625 -69.5625 C 49.078125 -66.21875 40.265625 -62.65625 29.0625 -61.9375 C 25.015625 -61.9375 23.34375 -62.40625 22.390625 -64.078125 C 21.671875 -65.03125 21.671875 -65.984375 21.921875 -67.890625 C 22.15625 -70.28125 24.0625 -72.65625 25.484375 -73.609375 C 26.4375 -74.328125 26.6875 -75.03125 25.96875 -75.75 C 25.25 -76.234375 23.109375 -75.75 22.390625 -75.28125 C 21.671875 -74.5625 10.71875 -71.234375 9.53125 -71.46875 C 8.8125 -71.703125 8.8125 -71.703125 9.53125 -72.890625 C 10 -74.09375 10 -74.328125 9.53125 -74.796875 C 8.8125 -75.515625 7.625 -75.515625 6.1875 -74.328125 L 5 -73.375 L 1.421875 -71.234375 L 0.953125 -70.75 L 0 -70.28125 C -0.234375 -70.28125 -0.953125 -69.796875 -1.1875 -70.03125 C -1.1875 -70.28125 -0.46875 -70.75 -0.234375 -70.984375 C 1.90625 -72.890625 3.8125 -75.28125 3.578125 -75.984375 L 3.578125 -76.703125 C 3.578125 -77.1875 1.90625 -77.421875 1.421875 -77.1875 C 0.953125 -76.703125 -5.71875 -69.078125 -6.4375 -67.890625 C -7.140625 -66.46875 -7.390625 -65.75 -6.671875 -65.03125 C -5.71875 -64.078125 -4.28125 -64.796875 0.234375 -67.65625 C 3.578125 -70.03125 5.953125 -71.234375 5.234375 -70.515625 C 5 -70.28125 5.234375 -69.796875 5.71875 -69.328125 C 6.671875 -68.609375 6.90625 -68.609375 8.578125 -68.609375 C 10.71875 -68.84375 16.4375 -70.28125 17.625 -70.984375 C 18.34375 -71.234375 18.8125 -71.46875 18.8125 -71.234375 C 19.0625 -71.234375 19.0625 -70.28125 18.8125 -69.328125 C 17.390625 -64.078125 19.0625 -61.21875 23.828125 -60.03125 C 25.734375 -59.5625 27.390625 -59.5625 30.96875 -59.796875 Z M 30.96875 -59.796875 "/></g></g></g><g fill="#3d3b3a" fill-opacity="1"><g transform="translate(174.335895, 255.557658)"><g><path d="M -2.859375 -64.796875 C 0.46875 -64.796875 5.484375 -68.375 6.671875 -70.28125 L 7.390625 -70.515625 C 9.765625 -70.03125 12.625 -69.796875 15.71875 -69.796875 C 19.0625 -69.796875 26.6875 -70.75 31.6875 -72.890625 L 33.828125 -73.84375 C 34.296875 -74.09375 34.546875 -74.5625 34.296875 -75.03125 C 34.0625 -75.515625 33.34375 -75.515625 33.109375 -75.28125 C 28.59375 -73.375 23.34375 -71.46875 15.25 -71.46875 C 13.34375 -71.46875 11.4375 -71.703125 10 -72.1875 C 9.53125 -72.421875 9.046875 -72.65625 8.09375 -72.890625 L 8.09375 -75.03125 C 8.09375 -75.28125 8.09375 -75.75 7.859375 -75.984375 C 7.625 -76.46875 6.90625 -76.9375 6.1875 -76.9375 L 3.09375 -77.1875 L 2.625 -77.421875 L 0.71875 -76.703125 L -3.328125 -72.65625 C -4.046875 -71.9375 -6.671875 -67.421875 -5.484375 -65.515625 C -4.765625 -64.5625 -4.765625 -64.5625 -2.859375 -64.796875 Z M 4.765625 -74.09375 C 4.28125 -74.328125 4.046875 -74.5625 4.53125 -74.5625 C 4.765625 -74.5625 5 -74.328125 5.234375 -74.328125 C 5.234375 -74.09375 5.234375 -73.84375 4.765625 -74.09375 Z M -2.140625 -66.9375 C -2.375 -66.9375 -3.328125 -68.125 -1.1875 -70.984375 C 0.234375 -72.890625 0.953125 -73.140625 1.671875 -73.140625 L 2.625 -72.421875 L 4.046875 -71.703125 C 4.28125 -71.46875 5.234375 -71.234375 2.140625 -68.609375 C 0 -66.703125 -1.90625 -66.9375 -2.140625 -66.9375 Z M -2.140625 -66.9375 "/></g></g></g><g fill="#3d3b3a" fill-opacity="1"><g transform="translate(207.684772, 255.557658)"><g><path d="M -6.4375 -64.078125 C -5.953125 -64.796875 -4.53125 -65.75 -3.578125 -66.46875 L -0.953125 -68.375 C 0 -69.328125 1.421875 -70.03125 6.4375 -72.421875 L 9.046875 -73.84375 C 10.25 -74.328125 10.484375 -74.328125 11.4375 -73.609375 C 12.859375 -72.890625 14.765625 -73.140625 18.109375 -74.328125 L 21.921875 -76.234375 L 24.53125 -77.421875 C 25.015625 -77.65625 26.203125 -77.890625 26.6875 -77.890625 C 27.390625 -77.890625 27.875 -78.140625 28.59375 -78.609375 C 30.015625 -80.046875 30.25 -80.75 29.78125 -81.46875 C 29.296875 -82.421875 28.59375 -82.421875 26.6875 -81 C 25.734375 -80.515625 25.015625 -80.046875 24.78125 -80.046875 C 24.53125 -80.046875 23.828125 -79.796875 23.109375 -79.328125 C 20.96875 -77.890625 16.203125 -75.75 14.765625 -75.75 C 14.296875 -75.75 14.0625 -75.984375 13.8125 -76.703125 C 13.578125 -78.140625 12.859375 -78.375 11.4375 -77.65625 C 10.953125 -77.1875 5.953125 -75.03125 4.765625 -74.328125 L 2.625 -73.375 C 1.90625 -72.890625 2.625 -73.84375 4.53125 -75.515625 C 6.90625 -77.65625 7.390625 -79.09375 5.953125 -79.5625 C 5.234375 -79.796875 4.765625 -79.796875 3.8125 -79.09375 C 1.671875 -77.890625 -3.8125 -72.421875 -5.71875 -70.03125 L -7.859375 -67.421875 C -8.578125 -66.46875 -9.296875 -65.515625 -9.53125 -65.03125 C -9.765625 -63.125 -7.625 -62.65625 -6.4375 -64.078125 Z M -6.4375 -64.078125 "/></g></g></g><g fill="#3d3b3a" fill-opacity="1"><g transform="translate(244.844949, 255.557658)"><g><path d="M -6.4375 -64.078125 C -5.953125 -64.796875 -4.53125 -65.75 -3.578125 -66.46875 L -0.953125 -68.375 C 0 -69.328125 1.421875 -70.03125 6.4375 -72.421875 L 9.046875 -73.84375 C 10.25 -74.328125 10.484375 -74.328125 11.4375 -73.609375 C 12.859375 -72.890625 14.765625 -73.140625 18.109375 -74.328125 L 21.921875 -76.234375 L 24.53125 -77.421875 C 25.015625 -77.65625 26.203125 -77.890625 26.6875 -77.890625 C 27.390625 -77.890625 27.875 -78.140625 28.59375 -78.609375 C 30.015625 -80.046875 30.25 -80.75 29.78125 -81.46875 C 29.296875 -82.421875 28.59375 -82.421875 26.6875 -81 C 25.734375 -80.515625 25.015625 -80.046875 24.78125 -80.046875 C 24.53125 -80.046875 23.828125 -79.796875 23.109375 -79.328125 C 20.96875 -77.890625 16.203125 -75.75 14.765625 -75.75 C 14.296875 -75.75 14.0625 -75.984375 13.8125 -76.703125 C 13.578125 -78.140625 12.859375 -78.375 11.4375 -77.65625 C 10.953125 -77.1875 5.953125 -75.03125 4.765625 -74.328125 L 2.625 -73.375 C 1.90625 -72.890625 2.625 -73.84375 4.53125 -75.515625 C 6.90625 -77.65625 7.390625 -79.09375 5.953125 -79.5625 C 5.234375 -79.796875 4.765625 -79.796875 3.8125 -79.09375 C 1.671875 -77.890625 -3.8125 -72.421875 -5.71875 -70.03125 L -7.859375 -67.421875 C -8.578125 -66.46875 -9.296875 -65.515625 -9.53125 -65.03125 C -9.765625 -63.125 -7.625 -62.65625 -6.4375 -64.078125 Z M -6.4375 -64.078125 "/></g></g></g><g fill="#3d3b3a" fill-opacity="1"><g transform="translate(282.005127, 255.557658)"><g><path d="M -2.859375 -64.796875 C 0.46875 -64.796875 5.484375 -68.375 6.671875 -70.28125 L 7.390625 -70.515625 C 9.765625 -70.03125 12.625 -69.796875 15.71875 -69.796875 C 19.0625 -69.796875 26.6875 -70.75 31.6875 -72.890625 L 33.828125 -73.84375 C 34.296875 -74.09375 34.546875 -74.5625 34.296875 -75.03125 C 34.0625 -75.515625 33.34375 -75.515625 33.109375 -75.28125 C 28.59375 -73.375 23.34375 -71.46875 15.25 -71.46875 C 13.34375 -71.46875 11.4375 -71.703125 10 -72.1875 C 9.53125 -72.421875 9.046875 -72.65625 8.09375 -72.890625 L 8.09375 -75.03125 C 8.09375 -75.28125 8.09375 -75.75 7.859375 -75.984375 C 7.625 -76.46875 6.90625 -76.9375 6.1875 -76.9375 L 3.09375 -77.1875 L 2.625 -77.421875 L 0.71875 -76.703125 L -3.328125 -72.65625 C -4.046875 -71.9375 -6.671875 -67.421875 -5.484375 -65.515625 C -4.765625 -64.5625 -4.765625 -64.5625 -2.859375 -64.796875 Z M 4.765625 -74.09375 C 4.28125 -74.328125 4.046875 -74.5625 4.53125 -74.5625 C 4.765625 -74.5625 5 -74.328125 5.234375 -74.328125 C 5.234375 -74.09375 5.234375 -73.84375 4.765625 -74.09375 Z M -2.140625 -66.9375 C -2.375 -66.9375 -3.328125 -68.125 -1.1875 -70.984375 C 0.234375 -72.890625 0.953125 -73.140625 1.671875 -73.140625 L 2.625 -72.421875 L 4.046875 -71.703125 C 4.28125 -71.46875 5.234375 -71.234375 2.140625 -68.609375 C 0 -66.703125 -1.90625 -66.9375 -2.140625 -66.9375 Z M -2.140625 -66.9375 "/></g></g></g><g fill="#3d3b3a" fill-opacity="1"><g transform="translate(315.354003, 255.557658)"><g><path d="M 8.09375 -56.21875 C 8.34375 -55.984375 8.8125 -55.984375 9.046875 -56.21875 L 9.765625 -56.453125 L 10.25 -56.703125 L 10.953125 -57.890625 C 12.15625 -60.265625 12.625 -61.21875 15.484375 -67.65625 C 16.203125 -69.078125 17.390625 -71.234375 17.390625 -72.1875 C 17.625 -72.890625 17.390625 -73.375 17.390625 -73.609375 L 18.34375 -73.609375 C 19.0625 -73.84375 19.53125 -73.140625 20.25 -73.140625 L 24.296875 -72.1875 L 27.640625 -71.703125 C 30.015625 -71.234375 32.390625 -70.984375 35.5 -70.984375 L 40.015625 -70.984375 C 41.453125 -70.984375 44.3125 -71.234375 47.171875 -71.703125 L 51.21875 -72.65625 L 53.59375 -73.609375 C 54.078125 -73.84375 54.546875 -74.328125 53.84375 -75.28125 C 53.59375 -75.515625 53.84375 -75.28125 51.453125 -74.5625 C 49.78125 -74.09375 49.3125 -73.84375 46.6875 -73.375 C 44.078125 -72.890625 40.015625 -72.65625 34.78125 -72.65625 C 27.875 -72.890625 23.828125 -74.09375 19.296875 -75.984375 C 17.859375 -76.46875 16.671875 -76.703125 15.953125 -76.703125 C 15.484375 -76.703125 15.25 -76.703125 15 -76.234375 C 14.765625 -76.234375 14.765625 -75.984375 14.765625 -75.984375 L 14.765625 -74.09375 C 14.765625 -73.375 14.53125 -71.703125 14.0625 -70.515625 C 13.34375 -68.125 9.296875 -59.796875 8.8125 -59.796875 C 8.09375 -59.796875 7.140625 -64.3125 7.140625 -67.421875 C 7.390625 -69.328125 6.90625 -70.03125 5.953125 -70.28125 C 4.53125 -70.515625 3.328125 -69.796875 1.671875 -67.890625 C -0.234375 -65.03125 -1.671875 -63.609375 -1.90625 -63.609375 C -2.625 -63.609375 -0.71875 -70.515625 0.71875 -72.65625 C 2.375 -75.75 2.375 -77.1875 0.234375 -76.9375 C -0.46875 -76.9375 -0.953125 -76.46875 -1.671875 -74.5625 C -2.859375 -71.9375 -4.28125 -66.703125 -4.765625 -64.5625 C -4.765625 -63.125 -4.765625 -62.890625 -4.046875 -61.9375 C -3.09375 -61.21875 -2.859375 -60.984375 -1.671875 -61.21875 C -0.234375 -61.21875 0.71875 -62.890625 2.375 -64.5625 C 3.09375 -65.515625 4.046875 -66.9375 4.28125 -66.9375 C 4.53125 -66.9375 5 -65.265625 4.765625 -64.796875 C 4.765625 -64.3125 5.71875 -58.609375 7.390625 -56.9375 Z M 8.09375 -56.21875 "/></g></g></g><g fill="#3d3b3a" fill-opacity="1"><g transform="translate(108.025923, 235.133393)"><g><path d="M 1.453125 -25.53125 L 5.46875 -25.53125 L 5.46875 -3.640625 L 12.078125 -3.640625 L 12.078125 0 L 1.453125 0 Z M 1.453125 -25.53125 "/></g></g></g><g fill="#3d3b3a" fill-opacity="1"><g transform="translate(122.204543, 235.133393)"><g><path d="M 5.28125 -25.53125 L 5.28125 -5.828125 C 5.28125 -4.910156 5.46875 -4.269531 5.84375 -3.90625 C 6.226562 -3.539062 6.734375 -3.359375 7.359375 -3.359375 C 7.992188 -3.359375 8.5 -3.539062 8.875 -3.90625 C 9.257812 -4.269531 9.453125 -4.910156 9.453125 -5.828125 L 9.453125 -25.53125 L 13.234375 -25.53125 L 13.234375 -6.09375 C 13.234375 -4.019531 12.726562 -2.429688 11.71875 -1.328125 C 10.71875 -0.222656 9.226562 0.328125 7.25 0.328125 C 5.28125 0.328125 3.789062 -0.222656 2.78125 -1.328125 C 1.78125 -2.429688 1.28125 -4.019531 1.28125 -6.09375 L 1.28125 -25.53125 Z M 5.28125 -25.53125 "/></g></g></g><g fill="#3d3b3a" fill-opacity="1"><g transform="translate(138.533465, 235.133393)"><g><path d="M 14.84375 -25.53125 L 10.65625 -13.125 L 15.140625 0 L 10.90625 0 L 7.625 -10.109375 L 4.296875 0 L 0.546875 0 L 5.03125 -13.125 L 0.84375 -25.53125 L 5 -25.53125 L 8.015625 -16.125 L 11.125 -25.53125 Z M 14.84375 -25.53125 "/></g></g></g><g fill="#3d3b3a" fill-opacity="1"><g transform="translate(156.028642, 235.133393)"><g><path d="M 5.28125 -25.53125 L 5.28125 -5.828125 C 5.28125 -4.910156 5.46875 -4.269531 5.84375 -3.90625 C 6.226562 -3.539062 6.734375 -3.359375 7.359375 -3.359375 C 7.992188 -3.359375 8.5 -3.539062 8.875 -3.90625 C 9.257812 -4.269531 9.453125 -4.910156 9.453125 -5.828125 L 9.453125 -25.53125 L 13.234375 -25.53125 L 13.234375 -6.09375 C 13.234375 -4.019531 12.726562 -2.429688 11.71875 -1.328125 C 10.71875 -0.222656 9.226562 0.328125 7.25 0.328125 C 5.28125 0.328125 3.789062 -0.222656 2.78125 -1.328125 C 1.78125 -2.429688 1.28125 -4.019531 1.28125 -6.09375 L 1.28125 -25.53125 Z M 5.28125 -25.53125 "/></g></g></g><g fill="#3d3b3a" fill-opacity="1"><g transform="translate(172.357564, 235.133393)"><g><path d="M 9.84375 0 C 9.800781 -0.164062 9.753906 -0.320312 9.703125 -0.46875 C 9.648438 -0.613281 9.601562 -0.796875 9.5625 -1.015625 C 9.53125 -1.234375 9.507812 -1.515625 9.5 -1.859375 C 9.488281 -2.203125 9.484375 -2.628906 9.484375 -3.140625 L 9.484375 -7.140625 C 9.484375 -8.335938 9.273438 -9.175781 8.859375 -9.65625 C 8.441406 -10.144531 7.773438 -10.390625 6.859375 -10.390625 L 5.46875 -10.390625 L 5.46875 0 L 1.453125 0 L 1.453125 -25.53125 L 7.515625 -25.53125 C 9.609375 -25.53125 11.117188 -25.039062 12.046875 -24.0625 C 12.984375 -23.09375 13.453125 -21.625 13.453125 -19.65625 L 13.453125 -17.65625 C 13.453125 -15.03125 12.578125 -13.300781 10.828125 -12.46875 C 11.847656 -12.0625 12.546875 -11.390625 12.921875 -10.453125 C 13.304688 -9.515625 13.5 -8.375 13.5 -7.03125 L 13.5 -3.09375 C 13.5 -2.46875 13.519531 -1.914062 13.5625 -1.4375 C 13.613281 -0.96875 13.738281 -0.488281 13.9375 0 Z M 5.46875 -21.875 L 5.46875 -14.046875 L 7.03125 -14.046875 C 7.789062 -14.046875 8.382812 -14.238281 8.8125 -14.625 C 9.238281 -15.007812 9.453125 -15.710938 9.453125 -16.734375 L 9.453125 -19.25 C 9.453125 -20.175781 9.285156 -20.84375 8.953125 -21.25 C 8.617188 -21.664062 8.101562 -21.875 7.40625 -21.875 Z M 5.46875 -21.875 "/></g></g></g><g fill="#3d3b3a" fill-opacity="1"><g transform="translate(188.832263, 235.133393)"><g><path d="M 5.21875 -8.453125 L 0.140625 -25.53125 L 4.34375 -25.53125 L 7.40625 -13.890625 L 10.46875 -25.53125 L 14.296875 -25.53125 L 9.234375 -8.453125 L 9.234375 0 L 5.21875 0 Z M 5.21875 -8.453125 "/></g></g></g><g fill="#3d3b3a" fill-opacity="1"><g transform="translate(205.088287, 235.133393)"><g/></g></g><g fill="#3d3b3a" fill-opacity="1"><g transform="translate(212.560879, 235.133393)"><g><path d="M 7.359375 -25.53125 C 9.378906 -25.53125 10.878906 -24.992188 11.859375 -23.921875 C 12.847656 -22.847656 13.34375 -21.28125 13.34375 -19.21875 L 13.34375 -15.90625 C 13.34375 -13.832031 12.847656 -12.257812 11.859375 -11.1875 C 10.878906 -10.125 9.378906 -9.59375 7.359375 -9.59375 L 5.46875 -9.59375 L 5.46875 0 L 1.453125 0 L 1.453125 -25.53125 Z M 5.46875 -21.875 L 5.46875 -13.234375 L 7.359375 -13.234375 C 7.992188 -13.234375 8.484375 -13.40625 8.828125 -13.75 C 9.171875 -14.09375 9.34375 -14.722656 9.34375 -15.640625 L 9.34375 -19.46875 C 9.34375 -20.394531 9.171875 -21.023438 8.828125 -21.359375 C 8.484375 -21.703125 7.992188 -21.875 7.359375 -21.875 Z M 5.46875 -21.875 "/></g></g></g><g fill="#3d3b3a" fill-opacity="1"><g transform="translate(228.306655, 235.133393)"><g><path d="M 9.84375 0 C 9.800781 -0.164062 9.753906 -0.320312 9.703125 -0.46875 C 9.648438 -0.613281 9.601562 -0.796875 9.5625 -1.015625 C 9.53125 -1.234375 9.507812 -1.515625 9.5 -1.859375 C 9.488281 -2.203125 9.484375 -2.628906 9.484375 -3.140625 L 9.484375 -7.140625 C 9.484375 -8.335938 9.273438 -9.175781 8.859375 -9.65625 C 8.441406 -10.144531 7.773438 -10.390625 6.859375 -10.390625 L 5.46875 -10.390625 L 5.46875 0 L 1.453125 0 L 1.453125 -25.53125 L 7.515625 -25.53125 C 9.609375 -25.53125 11.117188 -25.039062 12.046875 -24.0625 C 12.984375 -23.09375 13.453125 -21.625 13.453125 -19.65625 L 13.453125 -17.65625 C 13.453125 -15.03125 12.578125 -13.300781 10.828125 -12.46875 C 11.847656 -12.0625 12.546875 -11.390625 12.921875 -10.453125 C 13.304688 -9.515625 13.5 -8.375 13.5 -7.03125 L 13.5 -3.09375 C 13.5 -2.46875 13.519531 -1.914062 13.5625 -1.4375 C 13.613281 -0.96875 13.738281 -0.488281 13.9375 0 Z M 5.46875 -21.875 L 5.46875 -14.046875 L 7.03125 -14.046875 C 7.789062 -14.046875 8.382812 -14.238281 8.8125 -14.625 C 9.238281 -15.007812 9.453125 -15.710938 9.453125 -16.734375 L 9.453125 -19.25 C 9.453125 -20.175781 9.285156 -20.84375 8.953125 -21.25 C 8.617188 -21.664062 8.101562 -21.875 7.40625 -21.875 Z M 5.46875 -21.875 "/></g></g></g><g fill="#3d3b3a" fill-opacity="1"><g transform="translate(244.781354, 235.133393)"><g><path d="M 5.140625 -5.875 C 5.140625 -4.945312 5.328125 -4.296875 5.703125 -3.921875 C 6.078125 -3.546875 6.582031 -3.359375 7.21875 -3.359375 C 7.851562 -3.359375 8.359375 -3.546875 8.734375 -3.921875 C 9.109375 -4.296875 9.296875 -4.945312 9.296875 -5.875 L 9.296875 -19.65625 C 9.296875 -20.582031 9.109375 -21.234375 8.734375 -21.609375 C 8.359375 -21.984375 7.851562 -22.171875 7.21875 -22.171875 C 6.582031 -22.171875 6.078125 -21.984375 5.703125 -21.609375 C 5.328125 -21.234375 5.140625 -20.582031 5.140625 -19.65625 Z M 1.125 -19.40625 C 1.125 -21.46875 1.644531 -23.050781 2.6875 -24.15625 C 3.738281 -25.257812 5.25 -25.8125 7.21875 -25.8125 C 9.1875 -25.8125 10.691406 -25.257812 11.734375 -24.15625 C 12.785156 -23.050781 13.3125 -21.46875 13.3125 -19.40625 L 13.3125 -6.125 C 13.3125 -4.0625 12.785156 -2.472656 11.734375 -1.359375 C 10.691406 -0.253906 9.1875 0.296875 7.21875 0.296875 C 5.25 0.296875 3.738281 -0.253906 2.6875 -1.359375 C 1.644531 -2.472656 1.125 -4.0625 1.125 -6.125 Z M 1.125 -19.40625 "/></g></g></g><g fill="#3d3b3a" fill-opacity="1"><g transform="translate(261.037378, 235.133393)"><g><path d="M 7.359375 -25.53125 C 9.378906 -25.53125 10.878906 -24.992188 11.859375 -23.921875 C 12.847656 -22.847656 13.34375 -21.28125 13.34375 -19.21875 L 13.34375 -15.90625 C 13.34375 -13.832031 12.847656 -12.257812 11.859375 -11.1875 C 10.878906 -10.125 9.378906 -9.59375 7.359375 -9.59375 L 5.46875 -9.59375 L 5.46875 0 L 1.453125 0 L 1.453125 -25.53125 Z M 5.46875 -21.875 L 5.46875 -13.234375 L 7.359375 -13.234375 C 7.992188 -13.234375 8.484375 -13.40625 8.828125 -13.75 C 9.171875 -14.09375 9.34375 -14.722656 9.34375 -15.640625 L 9.34375 -19.46875 C 9.34375 -20.394531 9.171875 -21.023438 8.828125 -21.359375 C 8.484375 -21.703125 7.992188 -21.875 7.359375 -21.875 Z M 5.46875 -21.875 "/></g></g></g><g fill="#3d3b3a" fill-opacity="1"><g transform="translate(276.783164, 235.133393)"><g><path d="M 5.46875 -14.765625 L 10.984375 -14.765625 L 10.984375 -11.125 L 5.46875 -11.125 L 5.46875 -3.640625 L 12.40625 -3.640625 L 12.40625 0 L 1.453125 0 L 1.453125 -25.53125 L 12.40625 -25.53125 L 12.40625 -21.875 L 5.46875 -21.875 Z M 5.46875 -14.765625 "/></g></g></g><g fill="#3d3b3a" fill-opacity="1"><g transform="translate(292.018701, 235.133393)"><g><path d="M 9.84375 0 C 9.800781 -0.164062 9.753906 -0.320312 9.703125 -0.46875 C 9.648438 -0.613281 9.601562 -0.796875 9.5625 -1.015625 C 9.53125 -1.234375 9.507812 -1.515625 9.5 -1.859375 C 9.488281 -2.203125 9.484375 -2.628906 9.484375 -3.140625 L 9.484375 -7.140625 C 9.484375 -8.335938 9.273438 -9.175781 8.859375 -9.65625 C 8.441406 -10.144531 7.773438 -10.390625 6.859375 -10.390625 L 5.46875 -10.390625 L 5.46875 0 L 1.453125 0 L 1.453125 -25.53125 L 7.515625 -25.53125 C 9.609375 -25.53125 11.117188 -25.039062 12.046875 -24.0625 C 12.984375 -23.09375 13.453125 -21.625 13.453125 -19.65625 L 13.453125 -17.65625 C 13.453125 -15.03125 12.578125 -13.300781 10.828125 -12.46875 C 11.847656 -12.0625 12.546875 -11.390625 12.921875 -10.453125 C 13.304688 -9.515625 13.5 -8.375 13.5 -7.03125 L 13.5 -3.09375 C 13.5 -2.46875 13.519531 -1.914062 13.5625 -1.4375 C 13.613281 -0.96875 13.738281 -0.488281 13.9375 0 Z M 5.46875 -21.875 L 5.46875 -14.046875 L 7.03125 -14.046875 C 7.789062 -14.046875 8.382812 -14.238281 8.8125 -14.625 C 9.238281 -15.007812 9.453125 -15.710938 9.453125 -16.734375 L 9.453125 -19.25 C 9.453125 -20.175781 9.285156 -20.84375 8.953125 -21.25 C 8.617188 -21.664062 8.101562 -21.875 7.40625 -21.875 Z M 5.46875 -21.875 "/></g></g></g><g fill="#3d3b3a" fill-opacity="1"><g transform="translate(308.493391, 235.133393)"><g><path d="M 0.296875 -25.53125 L 12.6875 -25.53125 L 12.6875 -21.875 L 8.5 -21.875 L 8.5 0 L 4.484375 0 L 4.484375 -21.875 L 0.296875 -21.875 Z M 0.296875 -25.53125 "/></g></g></g><g fill="#3d3b3a" fill-opacity="1"><g transform="translate(323.291578, 235.133393)"><g><path d="M 5.21875 -8.453125 L 0.140625 -25.53125 L 4.34375 -25.53125 L 7.40625 -13.890625 L 10.46875 -25.53125 L 14.296875 -25.53125 L 9.234375 -8.453125 L 9.234375 0 L 5.21875 0 Z M 5.21875 -8.453125 "/></g></g></g></svg>