<svg width="20" height="20" viewBox="0 0 20 20" fill="none" xmlns="http://www.w3.org/2000/svg">
<path d="M8.07007 8.9214C8.07007 8.9214 9.96239 8.78274 9.96239 6.59244C9.96239 4.40199 8.41423 3.33301 6.45315 3.33301H0V15.5736H6.45315C6.45315 15.5736 10.3926 15.6964 10.3926 11.9607C10.3926 11.9608 10.5643 8.9214 8.07007 8.9214ZM5.98866 5.50863H6.45315C6.45315 5.50863 7.33033 5.50863 7.33033 6.78221C7.33033 8.05563 6.81445 8.24025 6.22932 8.24025H2.84334V5.50863H5.98866ZM6.2708 13.398H2.84334V10.1269H6.45315C6.45315 10.1269 7.76054 10.11 7.76054 11.8079C7.76054 13.2397 6.78405 13.3872 6.2708 13.398ZM15.6465 6.44737C10.8774 6.44737 10.8816 11.1506 10.8816 11.1506C10.8816 11.1506 10.5544 15.8296 15.6465 15.8296C15.6465 15.8296 19.8898 16.0689 19.8898 12.5747H17.7075C17.7075 12.5747 17.7803 13.8905 15.7192 13.8905C15.7192 13.8905 13.5366 14.0349 13.5366 11.7609H19.9626C19.9626 11.7609 20.6657 6.44737 15.6465 6.44737ZM13.5126 10.1269C13.5126 10.1269 13.7791 8.24022 15.6949 8.24022C17.6104 8.24022 17.5864 10.1269 17.5864 10.1269H13.5126ZM18.0948 5.56147H12.9783V4.05413H18.0948V5.56147Z" fill="black"/>
</svg>
